<?xml version="1.0" encoding="UTF-8"?>
<svg id="Camada_2" data-name="Camada 2" xmlns="http://www.w3.org/2000/svg" viewBox="0 0 608.84 299">
  <defs>
    <style>
      .cls-1 {
        fill: #00b75f;
      }

      .cls-2 {
        fill: #848484;
      }

      .cls-3 {
        fill: #0c1e45;
      }
    </style>
  </defs>
  <g id="Camada_1-2" data-name="Camada 1">
    <g>
      <g>
        <g>
          <path class="cls-3" d="M81.21,209.35c-.58,5.15-3.27,10.39-8.05,15.7-7.44,8.45-17.85,12.67-31.24,12.67-11.05,0-20.8-3.56-29.25-10.68-8.45-7.12-12.67-18.7-12.67-34.75,0-15.04,3.81-26.57,11.44-34.59,7.62-8.02,17.52-12.03,29.69-12.03,7.23,0,13.73,1.36,19.53,4.07,5.79,2.71,10.57,6.99,14.35,12.83,3.4,5.15,5.6,11.13,6.62,17.93,.58,3.99,.82,9.72,.72,17.22H22.87c.32,8.71,3.05,14.82,8.21,18.33,3.13,2.18,6.91,3.27,11.32,3.27,4.67,0,8.47-1.33,11.4-3.99,1.59-1.43,3-3.43,4.22-5.98h23.19Zm-22.47-26.62c-.37-6-2.19-10.56-5.46-13.67-3.27-3.11-7.32-4.66-12.15-4.66-5.26,0-9.34,1.65-12.23,4.94-2.9,3.29-4.72,7.76-5.46,13.39H58.74Z"/>
          <path class="cls-3" d="M141.9,237.16c-7.17,0-12.94-1.43-17.29-4.3-2.6-1.7-5.42-4.67-8.45-8.93v10.92h-22.24V117.54h22.63v41.76c2.87-4.04,6.03-7.12,9.48-9.24,4.09-2.66,9.3-3.99,15.62-3.99,11.42,0,20.36,4.12,26.82,12.35,6.46,8.24,9.68,18.86,9.68,31.88s-3.19,24.68-9.56,33.55c-6.38,8.87-15.28,13.31-26.7,13.31Zm12.43-44.47c0-6.16-.8-11.26-2.39-15.3-3.03-7.65-8.61-11.48-16.74-11.48s-13.9,3.75-16.98,11.24c-1.59,3.99-2.39,9.14-2.39,15.46,0,7.44,1.65,13.6,4.94,18.49,3.29,4.89,8.31,7.33,15.06,7.33,5.84,0,10.39-2.36,13.63-7.09,3.24-4.73,4.86-10.95,4.86-18.65Z"/>
          <path class="cls-3" d="M333.61,168.94c-9.14,0-15.28,2.98-18.41,8.93-1.75,3.35-2.63,8.5-2.63,15.46v41.52h-22.87v-86.87h21.68v15.14c3.51-5.79,6.56-9.75,9.16-11.88,4.25-3.56,9.78-5.34,16.58-5.34,.43,0,.78,.01,1.08,.04,.29,.03,.94,.07,1.95,.12v23.27c-1.43-.16-2.71-.27-3.82-.32-1.12-.05-2.02-.08-2.71-.08Z"/>
          <path class="cls-3" d="M425.24,209.35c-.58,5.15-3.27,10.39-8.05,15.7-7.44,8.45-17.85,12.67-31.24,12.67-11.05,0-20.8-3.56-29.25-10.68-8.45-7.12-12.67-18.7-12.67-34.75,0-15.04,3.81-26.57,11.44-34.59,7.62-8.02,17.52-12.03,29.69-12.03,7.23,0,13.73,1.36,19.53,4.07,5.79,2.71,10.57,6.99,14.35,12.83,3.4,5.15,5.6,11.13,6.62,17.93,.58,3.99,.82,9.72,.72,17.22h-59.46c.32,8.71,3.05,14.82,8.21,18.33,3.13,2.18,6.91,3.27,11.32,3.27,4.67,0,8.47-1.33,11.4-3.99,1.59-1.43,3-3.43,4.22-5.98h23.19Zm-22.47-26.62c-.37-6-2.19-10.56-5.46-13.67-3.27-3.11-7.32-4.66-12.15-4.66-5.26,0-9.34,1.65-12.23,4.94-2.9,3.29-4.72,7.76-5.46,13.39h35.31Z"/>
          <path class="cls-3" d="M513.94,209.35c-.58,5.15-3.27,10.39-8.05,15.7-7.44,8.45-17.85,12.67-31.24,12.67-11.05,0-20.8-3.56-29.25-10.68-8.45-7.12-12.67-18.7-12.67-34.75,0-15.04,3.81-26.57,11.44-34.59,7.62-8.02,17.52-12.03,29.69-12.03,7.23,0,13.73,1.36,19.53,4.07,5.79,2.71,10.57,6.99,14.35,12.83,3.4,5.15,5.6,11.13,6.62,17.93,.58,3.99,.82,9.72,.72,17.22h-59.46c.32,8.71,3.05,14.82,8.21,18.33,3.13,2.18,6.91,3.27,11.32,3.27,4.67,0,8.47-1.33,11.4-3.99,1.59-1.43,3-3.43,4.22-5.98h23.19Zm-22.47-26.62c-.37-6-2.19-10.56-5.46-13.67-3.27-3.11-7.32-4.66-12.15-4.66-5.26,0-9.34,1.65-12.23,4.94-2.9,3.29-4.72,7.76-5.46,13.39h35.31Z"/>
          <path class="cls-3" d="M570.98,164.8c-7.71,0-12.99,3.27-15.86,9.8-1.49,3.46-2.23,7.86-2.23,13.23v47.02h-22.63v-86.71h21.92v12.67c2.92-4.46,5.68-7.68,8.29-9.64,4.67-3.51,10.6-5.26,17.77-5.26,8.98,0,16.32,2.35,22.04,7.05,5.71,4.7,8.57,12.5,8.57,23.39v58.5h-23.27v-52.84c0-4.57-.61-8.08-1.83-10.52-2.23-4.46-6.48-6.7-12.75-6.7Z"/>
          <rect class="cls-3" x="77.21" y="123.18" width="22.51" height="11.22" transform="translate(-40.33 217.25) rotate(-90)"/>
          <rect class="cls-3" x="272.9" y="153.7" width="22.51" height="11.08" transform="translate(124.92 443.39) rotate(-90)"/>
          <rect class="cls-3" x="513.46" y="153.86" width="22.51" height="11.08" transform="translate(365.32 684.11) rotate(-90)"/>
          <path class="cls-3" d="M248.47,242.96c-.07,7.74-.96,13.32-2.7,16.69-2.75,5.48-8.23,8.21-16.41,8.21-5.79,0-9.9-1.03-12.35-3.1-1.44-1.17-2.47-3.08-3.11-5.74h-24.71c.74,8.66,4.63,15.17,11.64,19.53,7.02,4.36,16.07,6.54,27.18,6.54,18.38,0,30.82-4.89,37.3-14.66,3.77-5.69,5.66-14.14,5.66-25.35v-2.1h-22.49Z"/>
          <path class="cls-3" d="M223.87,235.25c7.21,0,13.09-1.72,17.61-5.18,2.49-1.87,4.83-4.66,7.01-8.38h22.48v-73.71h-22.08v12.51c-3.4-6.11-7.87-10.31-13.39-12.59-3.25-1.33-7.05-2-11.4-2-11.79,0-20.91,4.4-27.33,13.19-6.43,8.79-9.65,19.65-9.65,32.55s3.34,24.01,10.01,31.85c6.67,7.84,15.58,11.76,26.75,11.76Zm-10.84-58.27c3.03-7.49,8.52-11.23,16.49-11.23,5.84,0,10.52,2.15,13.99,6.46,3.48,4.31,5.23,10.57,5.23,18.8,0,8.77-1.84,15.16-5.51,19.18-3.67,4.01-8.15,6.01-13.46,6.01-7.97,0-13.5-3.67-16.58-11-1.7-3.94-2.54-8.43-2.54-13.48,0-5.83,.8-10.75,2.39-14.74Z"/>
          <rect class="cls-3" x="248.49" y="221.7" width="22.48" height="22.48"/>
        </g>
        <g>
          <path class="cls-2" d="M289.57,239.52h5.66v6.31h-5.66v-6.31Zm0,12.47h5.66v32.98h-5.66v-32.98Z"/>
          <path class="cls-2" d="M303.65,251.84h5.51v4.7c1.32-1.63,2.52-2.82,3.59-3.56,1.84-1.26,3.92-1.89,6.25-1.89,2.64,0,4.76,.65,6.37,1.95,.91,.74,1.73,1.83,2.47,3.28,1.24-1.77,2.69-3.09,4.36-3.95,1.67-.86,3.55-1.28,5.63-1.28,4.46,0,7.49,1.61,9.1,4.83,.87,1.73,1.3,4.06,1.3,6.99v22.06h-5.79v-23.02c0-2.21-.55-3.72-1.65-4.55-1.1-.82-2.45-1.24-4.04-1.24-2.19,0-4.07,.73-5.65,2.2-1.58,1.47-2.37,3.91-2.37,7.33v19.28h-5.66v-21.63c0-2.25-.27-3.89-.8-4.92-.84-1.55-2.42-2.32-4.73-2.32-2.1,0-4.02,.82-5.74,2.45-1.72,1.63-2.59,4.58-2.59,8.85v17.58h-5.57v-33.14Z"/>
          <path class="cls-2" d="M356.43,251.84h5.51v4.7c1.32-1.63,2.52-2.82,3.59-3.56,1.84-1.26,3.92-1.89,6.25-1.89,2.64,0,4.76,.65,6.37,1.95,.91,.74,1.73,1.83,2.47,3.28,1.24-1.77,2.69-3.09,4.36-3.95,1.67-.86,3.55-1.28,5.63-1.28,4.46,0,7.49,1.61,9.1,4.83,.87,1.73,1.3,4.06,1.3,6.99v22.06h-5.79v-23.02c0-2.21-.55-3.72-1.65-4.55-1.1-.82-2.45-1.24-4.04-1.24-2.19,0-4.07,.73-5.65,2.2-1.58,1.47-2.37,3.91-2.37,7.33v19.28h-5.66v-21.63c0-2.25-.27-3.89-.8-4.92-.84-1.55-2.42-2.32-4.73-2.32-2.1,0-4.02,.82-5.74,2.45-1.72,1.63-2.59,4.58-2.59,8.85v17.58h-5.57v-33.14Z"/>
          <path class="cls-2" d="M409.22,239.52h5.66v6.31h-5.66v-6.31Zm0,12.47h5.66v32.98h-5.66v-32.98Z"/>
          <path class="cls-2" d="M441.73,253.17c1.05,.72,2.12,1.77,3.21,3.16v-4.18h5.14v30.14c0,4.21-.62,7.53-1.85,9.96-2.3,4.5-6.65,6.75-13.05,6.75-3.56,0-6.55-.8-8.97-2.4-2.43-1.6-3.78-4.1-4.07-7.5h5.66c.27,1.49,.8,2.63,1.6,3.44,1.25,1.24,3.22,1.86,5.91,1.86,4.25,0,7.03-1.51,8.34-4.52,.78-1.77,1.14-4.94,1.08-9.5-1.11,1.69-2.44,2.95-4.01,3.77s-3.63,1.24-6.2,1.24c-3.58,0-6.7-1.27-9.38-3.82-2.68-2.55-4.02-6.76-4.02-12.64,0-5.55,1.35-9.88,4.05-13,2.7-3.12,5.96-4.67,9.79-4.67,2.59,0,4.85,.64,6.78,1.92Zm.68,5.97c-1.68-1.98-3.83-2.97-6.43-2.97-3.9,0-6.57,1.84-8,5.51-.76,1.96-1.14,4.53-1.14,7.7,0,3.73,.75,6.58,2.26,8.53,1.51,1.95,3.54,2.92,6.08,2.92,3.98,0,6.78-1.81,8.4-5.42,.9-2.04,1.36-4.43,1.36-7.15,0-4.11-.84-7.15-2.53-9.13Z"/>
          <path class="cls-2" d="M458.7,251.84h5.29v5.73c.43-1.12,1.5-2.47,3.19-4.07,1.69-1.6,3.64-2.4,5.85-2.4,.1,0,.28,0,.53,.03,.25,.02,.67,.06,1.27,.12v5.88c-.33-.06-.63-.1-.91-.12-.28-.02-.58-.03-.91-.03-2.81,0-4.96,.9-6.47,2.71-1.51,1.81-2.26,3.88-2.26,6.24v19.06h-5.57v-33.14Z"/>
          <path class="cls-2" d="M497.41,264.92c1.28-.17,2.13-.7,2.57-1.61,.25-.5,.37-1.21,.37-2.14,0-1.91-.68-3.29-2.02-4.15-1.35-.86-3.28-1.29-5.79-1.29-2.9,0-4.96,.79-6.18,2.36-.68,.87-1.12,2.17-1.33,3.89h-5.2c.1-4.09,1.43-6.94,3.97-8.55,2.54-1.6,5.5-2.4,8.85-2.4,3.89,0,7.06,.74,9.49,2.23,2.41,1.49,3.62,3.79,3.62,6.93v19.09c0,.58,.12,1.04,.36,1.39,.24,.35,.74,.53,1.5,.53,.25,0,.53-.02,.84-.05,.31-.03,.64-.08,.99-.14v4.11c-.87,.25-1.53,.4-1.98,.47s-1.07,.09-1.86,.09c-1.92,0-3.31-.68-4.18-2.04-.45-.72-.77-1.74-.96-3.06-1.14,1.48-2.76,2.77-4.89,3.87-2.13,1.09-4.47,1.64-7.02,1.64-3.07,0-5.59-.93-7.54-2.8-1.95-1.87-2.92-4.2-2.92-7,0-3.07,.96-5.45,2.88-7.14,1.92-1.69,4.43-2.73,7.55-3.12l8.88-1.11Zm-11.73,15.05c1.18,.93,2.57,1.39,4.18,1.39,1.96,0,3.86-.45,5.69-1.36,3.1-1.5,4.64-3.96,4.64-7.38v-4.48c-.68,.43-1.55,.8-2.62,1.09-1.07,.29-2.12,.5-3.15,.62l-3.37,.43c-2.02,.27-3.54,.69-4.55,1.27-1.72,.97-2.58,2.51-2.58,4.63,0,1.61,.59,2.87,1.76,3.8Z"/>
          <path class="cls-2" d="M516.01,242.59h5.63v9.25h5.29v4.55h-5.29v21.63c0,1.16,.39,1.93,1.18,2.32,.43,.23,1.16,.34,2.17,.34,.27,0,.56,0,.87-.02,.31-.01,.67-.05,1.08-.1v4.43c-.64,.19-1.3,.32-1.99,.4-.69,.08-1.44,.13-2.24,.13-2.6,0-4.36-.67-5.29-2-.93-1.33-1.39-3.06-1.39-5.18v-21.94h-4.49v-4.55h4.49v-9.25Z"/>
          <path class="cls-2" d="M532.5,239.52h5.66v6.31h-5.66v-6.31Zm0,12.47h5.66v32.98h-5.66v-32.98Z"/>
          <path class="cls-2" d="M570.59,255.15c2.93,2.84,4.39,7.03,4.39,12.55s-1.29,9.75-3.87,13.23c-2.58,3.48-6.59,5.22-12.02,5.22-4.53,0-8.12-1.54-10.78-4.62-2.66-3.08-3.99-7.22-3.99-12.41,0-5.56,1.4-10,4.21-13.29,2.81-3.3,6.58-4.95,11.31-4.95,4.24,0,7.83,1.42,10.75,4.27Zm-3.46,22.02c1.36-2.79,2.04-5.9,2.04-9.32,0-3.09-.49-5.6-1.47-7.54-1.55-3.05-4.22-4.57-8.02-4.57-3.36,0-5.81,1.3-7.34,3.89-1.53,2.6-2.29,5.73-2.29,9.4s.76,6.46,2.29,8.81c1.53,2.35,3.96,3.52,7.28,3.52,3.65,0,6.15-1.4,7.51-4.19Z"/>
          <path class="cls-2" d="M581.82,251.84h5.29v4.7c1.57-1.94,3.23-3.33,4.98-4.18s3.7-1.27,5.85-1.27c4.7,0,7.88,1.64,9.53,4.92,.91,1.79,1.36,4.36,1.36,7.7v21.26h-5.66v-20.89c0-2.02-.3-3.65-.9-4.89-.99-2.06-2.78-3.09-5.38-3.09-1.32,0-2.4,.13-3.25,.4-1.53,.45-2.87,1.36-4.02,2.72-.93,1.09-1.53,2.22-1.81,3.39-.28,1.17-.42,2.83-.42,5v17.36h-5.57v-33.14Z"/>
        </g>
      </g>
      <g>
        <path class="cls-1" d="M376.48,96.4l-1.12,11.05-69.42-7.02,2.34-23.13,57.33,5.8c6.68,.67,11.54,6.63,10.86,13.31Z"/>
        <path class="cls-1" d="M314.08,19.96l-1.12,11.05-69.41-7.02,2.34-23.14,57.33,5.8c6.68,.67,11.54,6.63,10.86,13.31Z"/>
        <path class="cls-1" d="M381.16,50.12l-1.12,11.05-69.42-7.02,2.34-23.14,57.33,5.8c6.68,.67,11.54,6.63,10.86,13.31Z"/>
        <path class="cls-1" d="M309.4,66.24l-1.12,11.05-69.41-7.02,2.34-23.14,57.33,5.8c6.68,.67,11.54,6.63,10.86,13.31Z"/>
        <path class="cls-1" d="M232.75,107.44s0-.02,0-.03L243.56,.62l-6.15-.62-10.86,107.44h6.21Z"/>
      </g>
    </g>
  </g>
</svg>